<svg width="107" height="39" viewBox="0 0 107 39" fill="none" xmlns="http://www.w3.org/2000/svg">
<path d="M64.6435 5.54772V11.1229C64.4376 11.1369 64.2496 11.1595 64.0624 11.1603C58.2306 11.1619 52.3996 11.161 46.5678 11.1634C46.2956 11.1634 46.0225 11.1759 45.751 11.1977C45.1988 11.2422 44.8376 11.6065 44.8306 12.1603C44.8181 13.1581 44.8134 14.1565 44.8321 15.1542C44.8485 15.999 45.4788 16.5989 46.3454 16.6052C47.8518 16.6153 49.3588 16.6083 50.8651 16.6083C53.9176 16.6083 56.97 16.588 60.0217 16.6153C61.9687 16.6332 63.6801 17.2869 65.0562 18.7043C66.2247 19.908 66.8597 21.3737 66.9408 23.0267C67.0087 24.4074 67.0001 25.8037 66.8784 27.1798C66.6273 30.0262 64.4251 32.3976 61.5903 32.9725C61.0482 33.0826 60.485 33.1395 59.9312 33.1411C53.6844 33.1528 47.4367 33.1481 41.1892 33.1481C41.0605 33.1481 40.9318 33.1481 40.7711 33.1481V27.4926H41.2617C47.4048 27.4926 53.5486 27.4926 59.6916 27.4926C60.7681 27.4926 61.3383 27.0347 61.4227 25.9746C61.4881 25.1508 61.4866 24.3138 61.4227 23.4901C61.3415 22.4588 60.7829 21.9892 59.7337 21.9495C59.3835 21.9361 59.0325 21.9463 58.6814 21.9463C54.2788 21.9424 49.8745 21.9947 45.4733 21.9105C43.3906 21.8707 41.5325 21.1093 40.2423 19.3542C39.0058 17.6731 38.9441 15.0193 40.0799 13.3422C40.8951 12.1385 42.0902 11.5504 43.488 11.3148C43.7556 11.2696 44.0302 11.2672 44.2994 11.2289C44.432 11.2102 44.5591 11.1549 44.7159 11.1073C44.7159 10.5152 44.7105 9.95976 44.7166 9.40519C44.7393 7.50881 45.9671 5.9947 47.819 5.59608C48.1076 5.53367 48.4119 5.51885 48.7083 5.51885C53.8513 5.51417 58.9951 5.51573 64.1381 5.51652C64.2909 5.51652 64.4431 5.53367 64.6443 5.54615L64.6435 5.54772Z" fill="#404040"/>
<path d="M29.5331 5.51595V11.1941C29.3864 11.1941 29.2491 11.1941 29.1118 11.1941C24.3191 11.1941 19.5263 11.1941 14.7336 11.1941C13.6992 11.1941 13.0253 11.8501 13.0245 12.8853C13.0213 17.1889 13.0213 21.4926 13.0245 25.7962C13.0253 26.8197 13.7117 27.492 14.7422 27.492C19.3009 27.4928 23.8596 27.4928 28.4183 27.492C29.1548 27.492 29.6321 27.0871 29.6439 26.3774C29.6665 24.9779 29.6501 23.5776 29.6477 22.1774C29.6477 22.1275 29.6282 22.0776 29.6087 21.984C29.4511 21.9715 29.2896 21.9535 29.1266 21.9481C28.2725 21.9192 27.3995 21.9949 26.5673 21.8467C24.9432 21.5573 23.7793 20.0845 23.7457 18.4402C23.7332 17.8465 23.7434 17.2528 23.7434 16.6343H34.9943C35.0115 16.7138 35.0411 16.7864 35.0404 16.8597C35.0348 19.0892 35.0559 21.3186 35.0099 23.5473C34.9741 25.2751 34.0177 26.4094 32.4372 26.9787C31.7172 27.2385 30.9255 27.3032 30.1657 27.4523C30.0425 27.4765 29.9153 27.478 29.7312 27.4951C29.7086 27.7316 29.6813 27.943 29.6688 28.1559C29.6267 28.865 29.682 29.5944 29.5315 30.2792C29.1719 31.9127 27.6586 33.1272 25.983 33.1359C21.879 33.1577 17.7728 33.2224 13.6712 33.1077C10.7583 33.0258 8.24109 30.844 7.53825 27.893C7.44308 27.4928 7.37521 27.0755 7.37443 26.6667C7.36429 21.7671 7.33309 16.8667 7.38301 11.9671C7.41577 8.91784 9.92137 6.13299 12.9457 5.63843C13.4043 5.56354 13.8739 5.5222 14.3388 5.52141C19.2221 5.51362 24.1054 5.51595 28.9893 5.51595C29.1563 5.51595 29.3216 5.51595 29.5331 5.51595Z" fill="#404040"/>
<path d="M99.311 33.1312H91.5713C86.9877 28.7222 82.4383 24.261 77.7368 19.7608C77.5949 19.65 77.4263 19.6773 77.3468 19.8685C77.3008 19.9792 77.3327 20.675 77.3327 20.8045C77.3327 24.7322 77.3327 28.659 77.3327 32.5866C77.3327 32.7528 77.3327 32.9189 77.3327 33.1163H71.6772V32.6771C71.6772 30.1622 71.6897 27.648 71.6733 25.1331C71.66 23.1221 72.5229 21.6033 74.2515 20.6188C75.0206 20.1805 75.8849 19.9074 76.7056 19.5603C76.8281 19.5088 76.9513 19.4589 77.0738 19.4081C77.0738 19.3738 77.0738 19.3395 77.0738 19.306C76.9271 19.2482 76.7828 19.1804 76.6322 19.1336C75.434 18.7631 74.2928 18.2849 73.3341 17.4471C72.2802 16.5258 71.7069 15.3565 71.6889 13.9711C71.6538 11.2627 71.678 8.55352 71.6788 5.84433C71.6788 5.75697 71.6929 5.66882 71.7022 5.55026H77.3327V6.05262C77.3327 9.96703 77.3327 13.8814 77.3327 17.7958C77.3327 17.9128 77.3296 18.1336 77.3343 18.2427C77.3468 18.5158 77.4802 18.593 77.6307 18.6749C77.7454 18.7373 78.0325 18.6195 78.1628 18.4971C79.3788 17.348 80.5794 16.1826 81.7807 15.0187C84.9478 11.9499 88.1102 8.87646 91.2842 5.8147C91.4371 5.66727 91.6797 5.53075 91.8818 5.52919C94.259 5.50968 96.6351 5.51671 99.0112 5.51749C99.0747 5.51749 99.139 5.52841 99.3055 5.54323C94.5413 10.1675 89.8333 14.7356 85.0929 19.3356C89.8279 23.9294 94.534 28.4968 99.311 33.1312Z" fill="#404040"/>
</svg>
