<svg width="24" height="24" viewBox="0 0 24 24" fill="none" xmlns="http://www.w3.org/2000/svg">
<rect x="0.75" y="0.75" width="22.5" height="22.5" rx="11.25" stroke="#B88912" stroke-width="1.5"/>
<path fill-rule="evenodd" clip-rule="evenodd" d="M17.7363 8.24645C17.9052 8.40412 18 8.61794 18 8.84088C18 9.06383 17.9052 9.27764 17.7363 9.43531L10.9869 15.7373C10.8977 15.8206 10.7918 15.8866 10.6752 15.9317C10.5587 15.9768 10.4338 16 10.3076 16C10.1814 16 10.0565 15.9768 9.93998 15.9317C9.82343 15.8866 9.71753 15.8206 9.62833 15.7373L6.27491 12.6067C6.1889 12.5292 6.1203 12.4364 6.07311 12.3338C6.02591 12.2312 6.00107 12.1209 6.00003 12.0093C5.99899 11.8976 6.02178 11.7869 6.06706 11.6836C6.11233 11.5803 6.1792 11.4864 6.26375 11.4075C6.3483 11.3285 6.44884 11.2661 6.55951 11.2238C6.67017 11.1815 6.78875 11.1603 6.90831 11.1612C7.02788 11.1622 7.14604 11.1854 7.25591 11.2295C7.36577 11.2735 7.46513 11.3376 7.5482 11.4179L10.3073 13.994L16.4625 8.24645C16.5461 8.16832 16.6454 8.10634 16.7547 8.06405C16.864 8.02177 16.9811 8 17.0994 8C17.2177 8 17.3348 8.02177 17.4441 8.06405C17.5534 8.10634 17.6527 8.16832 17.7363 8.24645Z" fill="#B88912"/>
</svg>
