<svg width="32" height="32" viewBox="0 0 32 32" fill="none" xmlns="http://www.w3.org/2000/svg">
<rect x="0.5" y="0.5" width="31" height="31" rx="15.5" fill="#CCCCCC"/>
<rect x="0.5" y="0.5" width="31" height="31" rx="15.5" stroke="#CCCCCC"/>
<mask id="mask0_2470_1682" style="mask-type:alpha" maskUnits="userSpaceOnUse" x="6" y="6" width="20" height="20">
<rect x="6" y="6" width="20" height="20" fill="#D9D9D9"/>
</mask>
<g mask="url(#mask0_2470_1682)">
<path d="M11.0007 24.3337C10.5423 24.3337 10.15 24.1705 9.82357 23.8442C9.49718 23.5178 9.33398 23.1254 9.33398 22.6671V14.3337C9.33398 13.8754 9.49718 13.483 9.82357 13.1567C10.15 12.8303 10.5423 12.6671 11.0007 12.6671H13.5007V14.3337H11.0007V22.6671H21.0007V14.3337H18.5007V12.6671H21.0007C21.459 12.6671 21.8513 12.8303 22.1777 13.1567C22.5041 13.483 22.6673 13.8754 22.6673 14.3337V22.6671C22.6673 23.1254 22.5041 23.5178 22.1777 23.8442C21.8513 24.1705 21.459 24.3337 21.0007 24.3337H11.0007ZM15.1673 19.3337V10.0212L13.834 11.3546L12.6673 10.1671L16.0007 6.83374L19.334 10.1671L18.1673 11.3546L16.834 10.0212V19.3337H15.1673Z" fill="#1C1B1F"/>
</g>
</svg>
